# xmcd CD database file
#
# Track frame offsets:
#	170
#	15485
#	29528
#	47090
#	60238
#	75485
#	86688
#	102378
#	113658
#	126343
#
# Disc length: 1935 seconds
#
# Revision: 2
# Processed by: cddbd v1.4PL0 Copyright (c) Steve Scherf et al.
# Submitted via: CDex 1.40Release
#
DISCID=74078d0a
DTITLE=Sammy Kershaw - Don't Go Near The Water
DYEAR=1991
DGENRE=Country
TTITLE0=Real Old-Fashioned Broken Heart
TTITLE1=Don't Go Near The Water
TTITLE2=I Buy Her Roses
TTITLE3=Cadillac Style
TTITLE4=Kickin' In
TTITLE5=What Am I Worth
TTITLE6=Yard Sale
TTITLE7=Anywhere But Here
TTITLE8=Every Third Monday
TTITLE9=Harbor For A Lonely Heart
EXTD=YEAR: 1991 ID3G: 2
EXTT0=
EXTT1=
EXTT2=
EXTT3=
EXTT4=
EXTT5=
EXTT6=
EXTT7=
EXTT8=
EXTT9=
PLAYORDER=
